HIERARCHY
ROOT Hips
{
  OFFSET -32.5998 29.0326 120.673
  CHANNELS 6 Xposition Yposition Zposition Zrotation Xrotation Yrotation
  JOINT LeftUpLeg
  {
    OFFSET 8.64259 1.95398 -2.38835
    CHANNELS 3 Zrotation Xrotation Yrotation
    JOINT LeftLeg
    {
      OFFSET 43.7702 0 0
      CHANNELS 3 Zrotation Xrotation Yrotation
      JOINT LeftFoot
      {
        OFFSET 40.6238 0 0
        CHANNELS 3 Zrotation Xrotation Yrotation
        JOINT LeftToeBase
        {
          OFFSET 12.7242 0 0
          CHANNELS 3 Zrotation Xrotation Yrotation
          End Site
          {
            OFFSET 0 0 0
          }
        }
      }
    }
  }
  JOINT RightUpLeg
  {
    OFFSET -8.2249 1.95398 -2.59336
    CHANNELS 3 Zrotation Xrotation Yrotation
    JOINT RightLeg
    {
      OFFSET 43.5653 0 0
      CHANNELS 3 Zrotation Xrotation Yrotation
      JOINT RightFoot
      {
        OFFSET 40.6238 0 0
        CHANNELS 3 Zrotation Xrotation Yrotation
        JOINT RightToeBase
        {
          OFFSET 12.7242 0 0
          CHANNELS 3 Zrotation Xrotation Yrotation
          End Site
          {
            OFFSET 0 0 0
          }
        }
      }
    }
  }
  JOINT Spine
  {
    OFFSET 0.165834 0.87714 6.61349
    CHANNELS 3 Zrotation Xrotation Yrotation
    JOINT Spine1
    {
      OFFSET 7.38963 1.71661e-005 0
      CHANNELS 3 Zrotation Xrotation Yrotation
      JOINT Spine2
      {
        OFFSET 11.9445 1.14441e-005 0
        CHANNELS 3 Zrotation Xrotation Yrotation
        JOINT Spine3
        {
          OFFSET 14.7254 4.19617e-005 0
          CHANNELS 3 Zrotation Xrotation Yrotation
          JOINT Spine4
          {
            OFFSET 10.9679 0 0
            CHANNELS 3 Zrotation Xrotation Yrotation
            JOINT RightShoulder
            {
              OFFSET 2.46616 -1.6653 3.69651
              CHANNELS 3 Zrotation Xrotation Yrotation
              JOINT RightArm
              {
                OFFSET 13.0012 0 0
                CHANNELS 3 Zrotation Xrotation Yrotation
                JOINT RightForeArm
                {
                  OFFSET 28.7848 1.62311e-005 0
                  CHANNELS 3 Zrotation Xrotation Yrotation
                  JOINT RightHand
                  {
                    OFFSET 26.5688 1.62095e-005 0
                    CHANNELS 3 Zrotation Xrotation Yrotation
                    End Site
                    {
                      OFFSET 0 0 0
                    }
                  }
                }
              }
            }
            JOINT LeftShoulder
            {
              OFFSET 2.38034 -1.29275 -3.7523
              CHANNELS 3 Zrotation Xrotation Yrotation
              JOINT LeftArm
              {
                OFFSET 16.3182 6.07031e-005 0
                CHANNELS 3 Zrotation Xrotation Yrotation
                JOINT LeftForeArm
                {
                  OFFSET 27.0901 0 0
                  CHANNELS 3 Zrotation Xrotation Yrotation
                  JOINT LeftHand
                  {
                    OFFSET 24.5451 1.51738e-005 0
                    CHANNELS 3 Zrotation Xrotation Yrotation
                    End Site
                    {
                      OFFSET 0 0 0
                    }
                  }
                }
              }
            }
            JOINT Neck
            {
              OFFSET 5.0226 -0.0266342 0
              CHANNELS 3 Zrotation Xrotation Yrotation
              JOINT Head
              {
                OFFSET 6.69364 2.86102e-005 0
                CHANNELS 3 Zrotation Xrotation Yrotation
                End Site
                {
                  OFFSET 0 0 0
                }
              }
            }
          }
        }
      }
    }
  }
}
MOTION
Frames:	19
Frame Time:	0.0416667
36.2468 8.36408 40.3239 4.15305 -9.88915 -1.07122 -175.192 -8.78281 92.0504 -20.3043 38.359 4.07594 91.3635 22.1254 1.50241 5.65846 -11.2323 1.2343 178.298 -15.4843 92.8006 -10.4588 -20.176 -7.10171 87.4209 -20.9364 -4.20652 41.3618 -5.05448 -4.41317 1.26781 9.26727 -91.2044 8.35558 1.99947 -2.50226 -3.31642 1.88744 -2.58782 -25.8528 2.65894 -1.78579 -5.8401 2.65894 -1.78579 105.533 18.8462 -46.7762 34.5587 -60.0759 -25.0589 12.9843 3.411 -146.64 90.2717 14.2847 9.00247 -69.5056 -17.1834 116.911 -22.7997 31.3551 -35.9635 96.6162 -29.3605 -95.071 -78.1866 30.0563 -42.4939 69.8628 3.96245 11.1241 -11.6644 -5.47333 1.32209 
36.231 8.35413 40.2838 4.06161 -9.92418 -1.04258 -175.08 -8.63165 92.1218 -20.6493 38.0572 3.98222 91.6656 22.197 1.21151 5.32626 -11.0008 0.664597 178.458 -15.6451 92.9832 -10.514 -20.3363 -7.23318 87.9562 -21.6568 -4.89291 39.9567 -4.54773 -3.08434 1.28215 9.25735 -91.1909 8.3758 2.03376 -2.47844 -3.29612 1.92274 -2.5655 -25.8332 2.68448 -1.75274 -5.82062 2.68449 -1.75274 105.567 18.6919 -46.9456 34.731 -59.9815 -24.5306 13.2636 3.10862 -146.795 89.5242 14.9758 9.87469 -69.6037 -16.9582 116.757 -22.786 31.3286 -35.9005 95.7445 -29.3337 -95.0488 -78.2133 29.1682 -41.4057 69.8636 3.81013 11.003 -11.8488 -5.51503 1.29219 
36.2445 8.37019 40.2837 4.12202 -9.86797 -1.02967 -175.124 -8.5047 92.102 -20.7653 38.1023 4.01951 91.6163 22.1588 1.21168 6.87889 -11.2077 2.10779 178.556 -15.5739 93.0543 -10.523 -20.2768 -7.29559 87.787 -21.5756 -5.02744 40.3536 -4.70087 -3.34352 1.27076 9.23025 -91.1842 8.42949 2.01339 -2.46559 -3.24237 1.90296 -2.55177 -25.7794 2.66119 -1.74659 -5.76671 2.6612 -1.7466 105.56 18.6499 -47.1513 34.9824 -59.9395 -24.0397 12.2226 4.11094 -146.793 91.1712 12.9505 7.49149 -69.6972 -17.0985 116.486 -22.7406 31.1085 -35.4472 96.0977 -29.4129 -94.9691 -78.1494 29.3241 -41.6352 69.7304 3.81047 10.982 -11.9862 -5.51151 1.51841 
36.2369 8.37691 40.3451 4.28709 -9.81766 -1.07012 -175.136 -8.53579 92.1057 -20.4884 38.2041 3.97671 91.5723 22.0223 0.986656 6.07483 -11.604 2.0742 178.619 -15.4027 93.0346 -10.5249 -20.191 -7.35224 87.0849 -20.7842 -4.55357 41.9566 -5.28226 -4.88255 1.23533 9.20561 -91.1788 8.47808 1.94448 -2.4522 -3.19388 1.83471 -2.53535 -25.7299 2.59144 -1.75455 -5.71731 2.59145 -1.75455 105.566 18.547 -47.427 34.9364 -59.9456 -23.8374 11.9841 4.48279 -146.845 91.3226 12.3664 6.89259 -69.7871 -17.0638 116.284 -22.944 30.9143 -34.7851 98.032 -29.609 -94.8535 -78.1412 31.6827 -44.5058 69.595 3.74036 11.0519 -12.0547 -5.57663 1.18611 
36.2325 8.38074 40.2971 4.14439 -9.81869 -1.05788 -175.147 -8.46803 92.0647 -20.7373 38.1783 4.01824 91.4384 22.1475 1.44142 5.9439 -10.8056 0.830798 178.747 -15.5231 93.1521 -10.558 -20.1937 -7.46128 87.6871 -21.3644 -4.80091 40.2645 -4.55052 -4.2367 1.25445 9.18446 -91.1631 8.52088 1.98909 -2.42523 -3.15099 1.88045 -2.51039 -25.688 2.62589 -1.7154 -5.67538 2.6259 -1.71541 105.571 18.3909 -47.8729 35.9194 -60.0424 -22.5104 12.5503 3.72658 -147.097 90.7654 13.6711 8.2885 -69.9072 -16.9479 116.038 -22.8003 30.8756 -34.7439 95.362 -29.5363 -95.2606 -78.1726 28.9478 -41.1744 69.4632 3.72276 10.9621 -12.1032 -5.50778 1.21604 
36.2462 8.37065 40.2668 4.19803 -9.87261 -1.07809 -175.166 -8.45804 92.0422 -20.9027 38.1223 4.05393 91.5735 22.2097 1.37592 5.34372 -10.0301 -0.701536 178.774 -15.6378 93.1857 -10.5687 -20.1978 -7.52104 88.1879 -21.9139 -5.15776 39.4032 -4.27029 -3.22132 1.23226 9.16756 -91.1561 8.55408 1.9475 -2.40981 -3.11777 1.83959 -2.49315 -25.6544 2.58159 -1.7132 -5.64171 2.5816 -1.71321 105.536 18.4215 -48.1225 36.0263 -60.0608 -22.3305 12.2665 4.13721 -147.004 90.8763 12.9882 7.59432 -70.0193 -16.9987 115.753 -22.9424 30.5888 -34.1007 95.9525 -29.7042 -95.355 -78.1705 29.8523 -42.2718 69.3338 3.73068 10.8948 -12.3101 -5.4249 1.12118 
36.2227 8.39312 40.2621 4.10608 -9.80768 -1.03733 -175.221 -8.38983 92.0717 -20.8936 37.7341 4.12795 92.0117 22.1364 0.609841 6.38269 -11.1893 1.7089 178.946 -15.5573 93.3336 -10.596 -20.1677 -7.61165 87.9952 -21.8896 -5.42316 39.5333 -4.37091 -2.9295 1.23335 9.13794 -91.1514 8.61351 1.95104 -2.40258 -3.05839 1.84344 -2.48609 -25.5951 2.58281 -1.70524 -5.58246 2.5828 -1.70524 105.539 18.3231 -48.3914 36.0847 -59.9125 -22.0283 12.3898 4.01173 -146.935 90.9341 13.4485 8.02825 -70.1363 -17.0736 115.45 -22.7625 30.3499 -33.5926 95.0205 -29.8341 -95.5471 -78.2949 29.0732 -41.2358 69.1217 3.64687 10.8104 -12.4531 -5.40288 1.06473 
36.25 8.4045 40.2733 4.24116 -9.92698 -0.993435 -175.145 -8.39901 92.1416 -21.0609 38.0829 4.10085 91.7765 22.1591 0.988764 6.18082 -10.9806 1.25927 178.974 -15.6734 93.385 -10.5753 -20.0064 -7.62615 88.0488 -21.8876 -5.34719 39.3606 -4.18623 -3.69595 1.21703 9.12188 -91.145 8.64511 1.92096 -2.38897 -3.02676 1.81399 -2.47117 -25.5632 2.55002 -1.7013 -5.55052 2.55003 -1.7013 105.536 18.1918 -48.8167 36.5905 -60.1805 -21.192 12.3387 4.07125 -147.14 91.6201 13.2037 7.63673 -70.3037 -17.0575 115.056 -22.7477 30.093 -33.2821 96.8302 -29.8899 -95.3577 -78.1857 31.0021 -43.6588 69 3.55798 10.9585 -12.5518 -5.54501 0.697322 
36.2491 8.40307 40.2757 4.09154 -9.92092 -1.06393 -175.1 -8.59395 92.0918 -20.6485 38.21 3.98926 91.5599 22.1922 1.35552 5.0943 -10.6771 0.0445938 178.994 -15.6218 93.3133 -10.6179 -20.1607 -7.7066 87.782 -21.6383 -5.28432 40.0635 -4.57719 -3.24685 1.21318 9.08892 -91.1298 8.71103 1.9193 -2.36078 -2.96082 1.81357 -2.44292 -25.4975 2.53996 -1.67489 -5.48486 2.53996 -1.6749 105.524 18.0617 -49.3186 36.8799 -59.8864 -20.5724 12.1275 4.28561 -147.081 91.5013 12.6233 7.10413 -70.4363 -17.1263 114.718 -22.878 29.7603 -32.7154 94.7444 -29.921 -95.7512 -78.2338 28.9799 -41.1678 68.8196 3.61494 10.8755 -12.5713 -5.42484 0.865647 
36.244 8.38974 40.2991 4.08867 -9.92692 -1.05351 -175.122 -8.68552 92.0965 -20.52 38.1067 4.02931 91.4242 22.0855 1.34006 6.26808 -10.3468 0.415752 179.06 -15.5972 93.3345 -10.6217 -20.0927 -7.7485 87.6013 -21.2728 -4.83181 40.9063 -5.02192 -2.78358 1.20274 9.0583 -91.1134 8.77198 1.90498 -2.32935 -2.8998 1.80065 -2.4109 -25.4366 2.51687 -1.64922 -5.42396 2.51687 -1.64922 105.518 17.9651 -49.6488 36.9842 -59.9426 -20.1233 12.5246 3.96193 -147.228 91.0448 12.8859 7.45585 -70.6281 -17.0848 114.273 -22.7508 29.4443 -32.0064 94.2859 -30.1123 -96.06 -78.2814 29.0052 -41.1604 68.6257 3.62564 10.7587 -12.7363 -5.31203 0.950082 
36.2794 8.37241 40.3634 4.11625 -9.96054 -1.03955 -175.06 -8.81215 92.1271 -20.2734 38.2276 3.9369 91.4401 22.0434 1.21679 4.01973 -10.9195 -0.377612 179.073 -15.5084 93.2431 -10.543 -19.4864 -7.75615 87.2702 -20.3253 -3.34126 42.8413 -5.53444 -6.64924 1.18919 9.02688 -91.0988 8.83452 1.88374 -2.30094 -2.83724 1.78068 -2.38157 -25.374 2.48808 -1.6285 -5.36139 2.48808 -1.6285 105.534 17.7177 -50.1974 37.5954 -59.7582 -19.1975 12.7753 3.78225 -147 89.9462 14.4488 9.24503 -70.7929 -17.0786 113.881 -22.599 29.2517 -31.614 93.811 -30.0326 -96.2422 -78.5434 28.7478 -40.6834 68.4343 3.33644 10.5976 -12.895 -5.41642 0.881045 
36.2437 8.37746 40.3601 4.19613 -9.95073 -1.03989 -175.076 -8.83142 92.1571 -20.2107 38.6442 3.9867 91.1783 22.0466 1.60539 5.77776 -10.838 0.764304 179.156 -15.508 93.3337 -10.5421 -19.4275 -7.8028 87.0802 -20.2279 -3.46922 42.4581 -5.48706 -5.26837 1.15838 8.98827 -91.0881 8.91112 1.82619 -2.27808 -2.7607 1.72419 -2.35622 -25.2969 2.42633 -1.62402 -5.28426 2.42632 -1.62401 105.531 17.5423 -50.6935 37.6337 -59.3158 -18.6538 12.1493 4.0477 -147.196 90.376 11.9865 6.71773 -70.9625 -17.0239 113.492 -22.8192 28.9678 -30.9066 93.891 -30.1156 -96.253 -78.5066 28.9372 -40.9383 68.2017 3.26716 10.6172 -12.9845 -5.42407 0.52146 
36.2809 8.38307 40.352 4.04939 -10.0282 -1.07645 -175.105 -9.01017 92.079 -20.0396 38.3666 3.97577 91.1064 21.9804 1.571 5.47478 -10.4967 0.0603288 179.096 -15.5651 93.2104 -10.5828 -19.6362 -7.82668 87.0078 -19.9897 -3.08981 43.2529 -5.75791 -6.46924 1.16139 8.95604 -91.0675 8.97564 1.84068 -2.24011 -2.69606 1.74034 -2.31893 -25.2329 2.42874 -1.58342 -5.22022 2.42874 -1.58341 105.493 17.4192 -51.3628 38.5859 -59.5336 -17.3779 13.2144 2.90291 -147.375 89.348 13.9421 8.8818 -71.1568 -17.2379 112.966 -22.4375 28.4086 -30.363 93.4041 -30.1896 -96.5234 -78.5405 28.7373 -40.68 67.9406 3.339 10.5537 -13.0657 -5.29149 0.624583 
36.268 8.3763 40.3715 4.07523 -10.1034 -1.02033 -175.057 -9.15026 92.1438 -19.9499 38.4038 3.99752 90.9559 21.9731 1.77963 5.3577 -10.0625 -0.641478 179.174 -15.64 93.286 -10.5285 -19.2239 -7.84807 87.0665 -19.7266 -2.40677 43.1856 -5.74758 -6.23159 1.14878 8.91845 -91.0513 9.05053 1.82197 -2.20889 -2.62118 1.72302 -2.28691 -25.158 2.40151 -1.55927 -5.1454 2.40151 -1.55926 105.481 17.1898 -52.0472 39.21 -59.2168 -16.2847 12.8121 3.17063 -147.391 89.3199 13.4294 8.37934 -71.3857 -17.1218 112.451 -22.6386 27.9776 -29.8265 94.5745 -30.1621 -96.7479 -78.5835 30.6051 -42.916 67.657 3.35333 10.4272 -13.1412 -5.15459 0.693819 
36.272 8.39671 40.3789 4.08397 -10.1739 -0.971097 -175.012 -9.12551 92.235 -20.0567 38.2082 3.97767 91.2088 21.8838 1.22564 4.84889 -10.4193 -0.497368 179.187 -15.6856 93.3469 -10.5445 -19.3664 -7.83129 86.8961 -19.8183 -2.87199 43.848 -6.00674 -7.01004 1.12006 8.87796 -91.0457 9.13083 1.76627 -2.19633 -2.54089 1.66791 -2.2719 -25.0771 2.34461 -1.56403 -5.06448 2.34461 -1.56404 105.434 17.06 -52.777 39.5937 -59.2292 -15.3549 11.9358 4.61577 -147.404 90.6111 11.9676 6.65172 -71.606 -17.3773 111.856 -22.63 27.5177 -28.9208 91.4465 -30.1866 -97.9442 -78.7319 29.1659 -41.08 67.355 3.18053 10.3725 -13.2672 -5.1982 0.399981 
36.2844 8.40907 40.309 4.07655 -10.1081 -1.01217 -175.057 -8.83453 92.1432 -20.5585 38.5411 4.00362 91.1035 22.1003 1.82415 5.39145 -10.3284 -0.243463 179.146 -15.7425 93.3494 -10.5424 -19.3557 -7.83287 87.7878 -20.8697 -3.68152 41.3552 -5.04863 -4.38062 1.09384 8.8187 -91.0273 9.24883 1.72097 -2.1598 -2.42292 1.62427 -2.23344 -24.9588 2.29043 -1.54282 -4.94625 2.29044 -1.54281 105.397 16.8407 -53.617 40.2166 -58.8225 -14.169 12.5412 3.50846 -147.453 90.1555 12.9821 7.74696 -71.8421 -17.3047 111.31 -22.7295 27.1867 -27.9804 92.9822 -30.2484 -97.1905 -78.7428 29.3878 -41.3185 66.9929 3.19309 10.297 -13.3682 -5.08075 0.34941 
36.267 8.39818 40.3125 3.98561 -10.223 -1.00111 -174.989 -9.05998 92.2033 -20.3588 38.5243 3.98226 91.0584 22.0814 1.85201 5.48594 -10.2395 -0.303289 179.163 -15.7908 93.3329 -10.5341 -19.234 -7.84656 87.7093 -20.6274 -3.27795 42.3401 -5.33311 -6.17632 1.09303 8.77896 -90.997 9.32834 1.7321 -2.10287 -2.3433 1.63789 -2.17705 -24.88 2.28394 -1.48514 -4.86733 2.28394 -1.48516 105.413 16.4398 -54.3635 40.9625 -58.8427 -12.8708 12.3842 3.94293 -147.44 89.9712 12.9856 7.79226 -72.1561 -17.2699 110.567 -22.4413 26.6954 -27.0815 90.6961 -30.6583 -99.1362 -78.5261 30.9005 -43.3336 66.5812 3.03408 10.0688 -13.4488 -5.01924 0.497005 
36.279 8.3976 40.3705 4.00772 -10.136 -0.999898 -175.022 -9.13005 92.1783 -20.0279 38.5451 3.98314 90.8404 21.9759 1.95203 5.06355 -9.60794 -1.49988 179.12 -15.6219 93.2428 -10.5153 -19.1919 -7.79418 87.0534 -19.7482 -2.42915 43.4622 -5.89119 -6.16422 1.07441 8.71319 -90.9703 9.45937 1.70564 -2.05148 -2.21222 1.61371 -2.12455 -24.749 2.24327 -1.44407 -4.73634 2.24327 -1.44409 105.416 16.1184 -55.0026 41.238 -58.7334 -11.9932 12.298 4.05452 -147.455 90.5598 12.5142 7.1975 -72.4712 -17.1658 109.834 -22.7418 26.1279 -26.0358 90.6177 -30.5471 -98.5561 -78.6929 29.1369 -41.0639 66.177 2.93803 9.9041 -13.6056 -4.9204 0.371364 
36.2628 8.39089 40.373 4.03865 -10.1434 -0.97533 -174.978 -9.07399 92.2176 -20.1278 38.593 3.94629 90.8347 22.003 2.01202 5.26366 -9.90743 -0.93406 179.099 -15.6688 93.2831 -10.5415 -19.4614 -7.75738 87.0433 -19.88 -2.74643 43.2331 -5.70753 -6.89174 1.04346 8.65127 -90.9546 9.58268 1.64974 -2.01934 -2.08893 1.55929 -2.08997 -24.6253 2.1803 -1.43021 -4.61264 2.18031 -1.43023 105.395 15.7894 -55.8279 41.6396 -58.7014 -10.8753 12.3017 3.94132 -147.591 90.5359 11.7086 6.41317 -72.7718 -17.3253 109.077 -22.1546 25.6926 -24.8646 90.5295 -30.7972 -98.2754 -78.9721 28.2831 -39.8558 65.6828 2.84834 9.814 -13.6648 -4.86872 0.293265 
